<svg width="32" height="32" viewBox="0 0 32 32" fill="none" xmlns="http://www.w3.org/2000/svg">
<circle cx="16" cy="16" r="15" stroke="white" stroke-width="2"/>
<path d="M16.048 24.144C15.616 24.144 15.256 24.024 14.968 23.784C14.696 23.528 14.56 23.168 14.56 22.704V13.44C14.56 12.976 14.696 12.624 14.968 12.384C15.256 12.144 15.616 12.024 16.048 12.024C16.48 12.024 16.84 12.144 17.128 12.384C17.416 12.624 17.56 12.976 17.56 13.44V22.704C17.56 23.168 17.416 23.528 17.128 23.784C16.84 24.024 16.48 24.144 16.048 24.144ZM16.048 9.888C15.504 9.888 15.072 9.744 14.752 9.456C14.432 9.152 14.272 8.76 14.272 8.28C14.272 7.8 14.432 7.416 14.752 7.128C15.072 6.84 15.504 6.696 16.048 6.696C16.576 6.696 17 6.84 17.32 7.128C17.656 7.416 17.824 7.8 17.824 8.28C17.824 8.76 17.664 9.152 17.344 9.456C17.024 9.744 16.592 9.888 16.048 9.888Z" fill="white"/>
</svg>
