<svg width="359" height="51" viewBox="0 0 359 51" fill="none" xmlns="http://www.w3.org/2000/svg">
<path d="M-1 34.8219L11 29.4969C23 24.0719 47 13.5719 71 6.82186C95 0.0718646 119 -2.42814 143 2.82186C167 8.07186 191 21.5719 215 24.1469C239 26.8219 263 18.8219 287 17.4969C311 16.0719 335 21.5719 347 24.1469L359 26.8219V50.8219H347C335 50.8219 311 50.8219 287 50.8219C263 50.8219 239 50.8219 215 50.8219C191 50.8219 167 50.8219 143 50.8219C119 50.8219 95 50.8219 71 50.8219C47 50.8219 23 50.8219 11 50.8219H-1V34.8219Z" fill="#FF6F5E"/>
</svg>
