<svg width="360" height="51" viewBox="0 0 360 51" fill="none" xmlns="http://www.w3.org/2000/svg">
<path d="M360 16L348 21.325C336 26.75 312 37.25 288 44C264 50.75 240 53.25 216 48C192 42.75 168 29.25 144 26.675C120 24 96 32 72 33.325C48 34.75 24 29.25 12 26.675L0 24V-2.67029e-05H12C24 -2.67029e-05 48 -2.67029e-05 72 -2.67029e-05C96 -2.67029e-05 120 -2.67029e-05 144 -2.67029e-05C168 -2.67029e-05 192 -2.67029e-05 216 -2.67029e-05C240 -2.67029e-05 264 -2.67029e-05 288 -2.67029e-05C312 -2.67029e-05 336 -2.67029e-05 348 -2.67029e-05H360V16Z" fill="#FF6F5E"/>
</svg>
